@startuml

skinparam monochrome true
skinparam packageStyle rect
skinparam defaultFontName FG Virgil
skinparam shadowing false

class CreateExamUI <<presntation>> {
    doShow()
}

class CreateExamController <<application>> {
    createExam()
}

class ExamManagementService <<service>> {
    createNewExam()
}

class AuthorizationService <<service>> {
    ensureAuthenticatedUserHasAnyOf(Role...)
    session()
}

class UserSession {
    authenticatedUser()
}


class "class:Exam" <<domain>> {
    addExam(Exam)
}

class ExamBuilder <<build>> {
    build()
    with(String, String, Date, Date)
}


class PersistenceContext <<persistence>> {
    repositories()
}

class RepositoryFactory <<factory>> {
    courses()
}

class ExamRepository <<repository>> {
    save(Exam)
}

CreateExamUI -> CreateExamController : theController
CreateExamController -> ExamManagementService : theService
ExamManagementService -> AuthorizationService : autzh
AuthorizationService -> UserSession : session
ExamManagementService -> ExamBuilder : theBuilder
ExamBuilder -> "class:Exam" : exam
ExamManagementService --> PersistenceContext : persistence
PersistenceContext --> RepositoryFactory : factory
RepositoryFactory --> ExamRepository : repository
ExamManagementService --> ExamRepository : repository

@enduml